# xmcd
#
# Track frame offsets:
#	150
#	16120
#	31824
#	46627
#	60099
#	79344
#	101459
#	115624
#	134979
#	149600
#
# Disc length: 2289 seconds
#
# Revision: 1
# Processed by: cddbd v1.5.2PL0 Copyright (c) Steve Scherf et al.
# Submitted via: audiograbber 1.83.01
#
DISCID=7908ef0a
DTITLE=Ruth Hanna - Let It Shine
DYEAR=2009
DGENRE=Gospel
TTITLE0=This Little Light of Mine
TTITLE1=How Great is Our God
TTITLE2=Come Thou Fount of Every Blessing
TTITLE3=Oh Lord You're Beautiful
TTITLE4=You are My King
TTITLE5=The River
TTITLE6=I Surrender All
TTITLE7=All for Jesus
TTITLE8=Jesus Keep Me Near the Cross
TTITLE9=It is Well with My Soul
EXTD=
EXTT0=
EXTT1=
EXTT2=
EXTT3=
EXTT4=
EXTT5=
EXTT6=
EXTT7=
EXTT8=
EXTT9=
PLAYORDER=
